/* XPM */
static char *door[] = {
/* columns rows colors chars-per-pixel */
"30 30 224 2 ",
"   c #6F0000",
".  c #720502",
"X  c #780602",
"o  c #790602",
"O  c #7A0602",
"+  c #7B0602",
"@  c #7C0602",
"#  c #7D0602",
"$  c #7E0602",
"%  c #7E0603",
"&  c #7F0603",
"*  c #770804",
"=  c #7E0F0C",
"-  c #7D3C3A",
";  c #7A4446",
":  c #830000",
">  c #810500",
",  c #800502",
"<  c #800603",
"1  c #810603",
"2  c #840400",
"3  c #870702",
"4  c #860703",
"5  c #870703",
"6  c #880000",
"7  c #8B0000",
"8  c #880603",
"9  c #890603",
"0  c #880703",
"q  c #890703",
"w  c #8A0702",
"e  c #8B0702",
"r  c #8A0603",
"t  c #8B0603",
"y  c #8B0703",
"u  c #8E0502",
"i  c #8C0603",
"p  c #8D0603",
"a  c #8C0703",
"s  c #8D0703",
"d  c #8E0702",
"f  c #8E0603",
"g  c #8F0603",
"h  c #8E0703",
"j  c #8F0703",
"k  c #860804",
"l  c #8D0802",
"z  c #8C0803",
"x  c #8E0802",
"c  c #8F0802",
"v  c #8F0803",
"b  c #960000",
"n  c #970000",
"m  c #900502",
"M  c #900703",
"N  c #910703",
"B  c #920703",
"V  c #930703",
"C  c #940603",
"Z  c #950603",
"A  c #940703",
"S  c #980000",
"D  c #990000",
"F  c #9A0000",
"G  c #9B0000",
"H  c #9C0000",
"J  c #9D0000",
"K  c #9C0100",
"L  c #9E0000",
"P  c #900803",
"I  c #920803",
"U  c #930803",
"Y  c #940803",
"T  c #9C0802",
"R  c #9D0802",
"E  c #9C0803",
"W  c #9E0802",
"Q  c #9F0802",
"!  c #9E0803",
"~  c #9F0803",
"^  c #9F0904",
"/  c #9B0C07",
"(  c #930C09",
")  c #940C0A",
"_  c #980D08",
"`  c #9E0E09",
"'  c #87110D",
"]  c #88110E",
"[  c #8D100D",
"{  c #821411",
"}  c #841713",
"|  c #9A1510",
" . c #A20701",
".. c #A00702",
"X. c #A10703",
"o. c #A30703",
"O. c #A70501",
"+. c #A40701",
"@. c #A60702",
"#. c #A90501",
"$. c #AB0501",
"%. c #A90701",
"&. c #A90703",
"*. c #AB0702",
"=. c #AA0703",
"-. c #AB0703",
";. c #AC0602",
":. c #AC0702",
">. c #AD0702",
",. c #AC0703",
"<. c #AD0703",
"1. c #AE0702",
"2. c #AE0703",
"3. c #AF0703",
"4. c #A00803",
"5. c #A10803",
"6. c #A00903",
"7. c #A10903",
"8. c #A20803",
"9. c #A30803",
"0. c #A20903",
"q. c #A30903",
"w. c #A40803",
"e. c #A50803",
"r. c #A50903",
"t. c #A60803",
"y. c #A00804",
"u. c #A10804",
"i. c #A00904",
"p. c #A10904",
"a. c #A20804",
"s. c #A30804",
"d. c #A20904",
"f. c #A30904",
"g. c #A20A05",
"h. c #A40804",
"j. c #A50804",
"k. c #A40904",
"l. c #A50904",
"z. c #A60804",
"x. c #A70804",
"c. c #A60904",
"v. c #A70904",
"b. c #A40A05",
"n. c #A90803",
"m. c #AA0803",
"M. c #AB0803",
"N. c #A80804",
"B. c #A90804",
"V. c #A80904",
"C. c #A90904",
"Z. c #AA0804",
"A. c #AB0804",
"S. c #AA0904",
"D. c #AB0904",
"F. c #AB0B07",
"G. c #AC0804",
"H. c #AD0804",
"J. c #AC0904",
"K. c #AD0904",
"L. c #AE0804",
"P. c #AF0804",
"I. c #AE0904",
"U. c #AC0F0C",
"Y. c #AD0F0C",
"T. c #AF0F0C",
"R. c #B10602",
"E. c #B00703",
"W. c #B10703",
"Q. c #B20602",
"!. c #B30603",
"~. c #B40603",
"^. c #B60603",
"/. c #B00704",
"(. c #B10704",
"). c #B20704",
"_. c #B30704",
"`. c #B40704",
"'. c #B50704",
"]. c #B00804",
"[. c #B10804",
"{. c #B00805",
"}. c #B10805",
"|. c #B20804",
" X c #A1100B",
".X c #A2100C",
"XX c #A3100C",
"oX c #A4100C",
"OX c #A5100C",
"+X c #A6100C",
"@X c #A7100C",
"#X c #A7140F",
"$X c #A8100C",
"%X c #A9100C",
"&X c #AA100C",
"*X c #AB100C",
"=X c #A9130F",
"-X c #A71511",
";X c #A91511",
":X c #A6201C",
">X c #A11F20",
",X c #95403D",
"<X c #95413E",
"1X c #96423F",
"2X c #974340",
"3X c #984440",
"4X c #9A4643",
"5X c #854B50",
"6X c #855057",
"7X c #855158",
"8X c #89525A",
"9X c #92575D",
"0X c #A5524F",
"qX c #A95854",
"wX c #AD5F5E",
"eX c #A45F61",
"rX c #A96163",
"tX c #AE6362",
"yX c #AF6362",
"uX c #AE6463",
"iX c #B06563",
"pX c #B36563",
"aX c #B0706D",
"sX c #B8817F",
/* pixels */
"'.`.(.(././././.(././.(././././././././././././././.).(.^.T.",
"_./.C o 4 4 5 5 5 5 0 0 0 0 0 0 0 0 0 5 5 5 5 5 4 4 . Z !.Y.",
").(.B z v.x.z.z.j.h.a.u.y.~ ~ ~ ^ i.u.s.h.j.z.x.x.V.X g ~.Y.",
"|.P.A Y L.P.j.s.z.x.N.n.A.G.G.G.G.A.B.N.t.j.d.Z.P.]., m !.U.",
"|.P.V Y L.L.x.A.[.].[.].[.[.].].].[.].}.[.P.v.A.P.1.] ) Q.*X",
"[.L.V Y L.L.v.Z.P.P.P.].P.P.{.].P.].P.].].L.v.A.P.1.' ( R.*X",
"{.L.V Y L.L.x.Z.P.P.P.P.P.P.P.P.P.P.P.P.P.L.x.A.L.P., u W.*X",
"].H.B Y H.H.x.B.P.P.P.P.P.P.P.P.P.P.L.P.P.H.v.A.L.P.1 g W.&X",
"].H.B Y H.H.v.B.P.L.L.P.P.L.L.P.L.P.L.P.P.H.z.A.L.I.< f E.&X",
"P.G.B U H.H.c.N.L.L.L.L.L.L.L.L.L.L.L.L.L.H.z.Z.H.K.& f E.&X",
"P.G.N I G.H.c.N.L.H.L.L.L.L.L.L.L.L.H.H.L.H.l.Z.H.K.& f E.%X",
"L.G.N I G.G.l.N.L.H.H.H.L.L.H.L.L.H.H.H.H.G.j.Z.H.K.& p 3.%X",
"L.A.M I ;.$.r.x.H.G.H.H.H.H.H.H.H.H.H.H.H.G.j.B.G.K.& p 3.%X",
"L.A.M M =X;Xg.b.A.G.H.H.H.H.H.H.H.H.H.H.H.G.k.B.G.K.% s 3.$X",
"H.A.M 7 pXsX>X:XF.,.G.G.H.H.G.H.H.H.G.H.H.A.h.B.G.J.$ a 2.$X",
"H.Z.h 6 iXaXD ..B.A.G.G.G.G.G.G.G.G.G.G.G.A.h.N.A.J.$ i 2.$X",
"H.Z.h d #X-XX.w.A.A.A.G.G.G.G.G.H.H.H.G.G.A.9.N.A.J.$ i <.$X",
"H.Z.j P %.#.q.9.N.N.N.N.N.N.N.N.N.N.N.N.B.x.8.x.A.D.# i <.@X",
"G.Z.j P S.Z.n.M.-.M.M.M.M.A.M.A.A.A.A.M.A.M.G.m.A.D.# t <.@X",
"G.B.h v C.Z.B.N.N.N.B.B.B.N.B.B.B.N.B.B.N.B.B.B.Z.S.# t >.@X",
"G.B.h c C.B.~ ! 8.8.8.8.8.8.8.8.5.8.8.8.8.5.E w.Z.S.@ t :.@X",
"G.B.h c V.B.5.w.A.Z.A.A.Z.A.A.Z.A.A.Z.A.A.Z.5.e.Z.S.@ r :.@X",
"A.N.s x V.N.5.9.B.B.B.B.B.B.B.B.B.B.B.B.Z.N.4.w.B.C.+ r :.+X",
"A.x.a l v.x.4.8.B.N.N.N.N.N.N.N.N.N.N.N.N.N.Q 9.V.V.+ 9 *.+X",
"Z.z.a l c.c.~ 5.V.N.x.v.v.x.x.v.N.x.x.x.N.x.W 8.v.v.O 8 =.OX",
"Z.z.y e l.l.R ! f.f.f.f.f.f.f.d.d.f.f.f.f.d.T 5.c.l.o 0 &.oX",
"B.j.q w q.f.8.9.9.9.9.9.8.8.9.9.8.8.9.9.9.9.o.5.f. .} [ O.XX",
"v.f.0 3 4.p.d.d.d.d.7.d.d.7.d.0.0.7.0.d.d.7.d.p.6.7.* k @..X",
"e.5.2 : J L L L H S S b b b b b b n S F F F G G G K   > +. X",
"` _ { ; 5X6X7X8X9XeXrXuXtXtXtXyXwXqX0X4X3X2X1X<X,X,X- = / | "
};
