/* XPM */
static char *collect[] = {
/* columns rows colors chars-per-pixel */
"30 30 182 2 ",
"   c black",
".  c #010101",
"X  c #141300",
"o  c #151400",
"O  c #161500",
"+  c #1A1A0A",
"@  c #101010",
"#  c #171611",
"$  c #171614",
"%  c #1E1D15",
"&  c #17171D",
"*  c #191A1D",
"=  c #211F03",
"-  c #252300",
";  c #272500",
":  c #262402",
">  c #242205",
",  c #2D2C00",
"<  c #27260E",
"1  c #302E00",
"2  c #333001",
"3  c #353200",
"4  c #383500",
"5  c #383700",
"6  c #393700",
"7  c #3C3800",
"8  c #3F3C00",
"9  c #33310E",
"0  c #3D3C0B",
"q  c #3F3C0D",
"w  c #2D2C15",
"e  c #343311",
"r  c #39381B",
"t  c #212120",
"y  c #222222",
"u  c #232323",
"i  c #21222E",
"p  c #282828",
"a  c #2A2A2A",
"s  c #2C2C2C",
"d  c #252630",
"f  c #292A34",
"g  c #2B2B34",
"h  c #2A2A36",
"j  c #2B2C38",
"k  c #2D2D38",
"l  c #313131",
"z  c #313132",
"x  c #323232",
"c  c gray20",
"v  c #343434",
"b  c #353534",
"n  c gray21",
"m  c #373737",
"M  c #383837",
"N  c #34333A",
"B  c gray22",
"V  c #393939",
"C  c #3A3A3A",
"Z  c gray23",
"A  c #3C3C3C",
"S  c gray24",
"D  c #403C00",
"F  c #423F00",
"G  c #413E07",
"H  c #444100",
"J  c #464100",
"K  c #4B4704",
"L  c #4C4900",
"P  c #4D4900",
"I  c #4E4900",
"U  c #4F4901",
"Y  c #4B4904",
"T  c #514C00",
"R  c #504E02",
"E  c #545000",
"W  c #565101",
"Q  c #5D5600",
"!  c #5D5807",
"~  c #605900",
"^  c #625D00",
"/  c #655F00",
"(  c #645E01",
")  c #676100",
"_  c #706B01",
"`  c #767100",
"'  c #777200",
"]  c #3F3F40",
"[  c gray25",
"{  c #414140",
"}  c #404041",
"|  c #414141",
" . c #424241",
".. c gray27",
"X. c #474646",
"o. c #41424E",
"O. c gray29",
"+. c gray30",
"@. c #4F4F51",
"#. c #4F505B",
"$. c #515151",
"%. c #5A5A5A",
"&. c #5D5D5C",
"*. c gray37",
"=. c #525366",
"-. c #626371",
";. c #847C00",
":. c #857D00",
">. c #908700",
",. c #918800",
"<. c #948B00",
"1. c #9B9300",
"2. c #9D9700",
"3. c #9F9800",
"4. c #9E9C00",
"5. c #A09700",
"6. c #A19A00",
"7. c #A89F00",
"8. c #A9A000",
"9. c #ABA600",
"0. c #ADA800",
"q. c #B6AB00",
"w. c #B8AE00",
"e. c #BDB200",
"r. c #BFB400",
"t. c #BEB500",
"y. c #BFB500",
"u. c #C2B700",
"i. c #C2BA00",
"p. c #C5BA00",
"a. c #CABF00",
"s. c #C7C100",
"d. c #CFC300",
"f. c #CFC500",
"g. c #D5C900",
"h. c #D8CC00",
"j. c #D9CE00",
"k. c #DCD000",
"l. c #DED100",
"z. c #DED200",
"x. c #DFD500",
"c. c #E0D300",
"v. c #E1D500",
"b. c #E0D900",
"n. c #E2DC00",
"m. c #E8DD00",
"M. c #EADD00",
"N. c #E9DE00",
"B. c #EDDF00",
"V. c #EFE300",
"C. c #EFE500",
"Z. c #F2E900",
"A. c #F1EA00",
"S. c #F3EB00",
"D. c #F7EB00",
"F. c #F6F000",
"G. c #F7F100",
"H. c #FBF000",
"J. c #FBF100",
"K. c #F8F200",
"L. c #F9F300",
"P. c #FBF300",
"I. c #FDF000",
"U. c #FCF100",
"Y. c #FFF000",
"T. c #FFF100",
"R. c #FDF300",
"E. c #FFF200",
"W. c #FFF300",
"Q. c #FFF500",
"!. c #FDF700",
"~. c #FFF600",
"^. c #FFF700",
"/. c #FFF800",
"(. c #FFF900",
"). c #FFFA00",
"_. c #FFFB00",
"`. c #FFFC00",
"'. c #FFFD00",
"]. c #FFFE00",
"[. c yellow",
"{. c None",
/* pixels */
"{.{.{.{.{.{.{.{.{.{.{.{.{.{.{.{.{.{.{.{.{.{.{.{.{.{.{.{.{.{.",
"{.{.{.{.{.{.{.{.{.{.{.{.{.{.+.{.{.{.{.{.{.{.{.{.{.{.{.{.{.{.",
"{.{.{.{.{.{.{.{.{.{.{.{.{.{.p {.{.{.{.{.{.{.{.{.{.{.{.{.{.{.",
"{.{.{.{.{.{.{.{.{.{.{.{.{.{.s {.{.{.{.{.{.{.{.Z {.{.{.{.{.{.",
"{.{.{.{.{.{.C {.{.{.{.{.{.{...{.{.{.{.{.{.{.{.Z {.{.{.{.{.{.",
"{.{.{.{.{.{.{.S {.{.{.{.{.{.{.{.{.{.{.{.{.{.O.{.{.{.{.{.{.{.",
"{.{.{.{.{.{.{.{.*.{.{.{.{.{.{.{.{.{.{.{.{.{.{.{.{.{.{.{.{.{.",
"{.{.{.{.{.{.{.{.{.{.{.{.{.{.{.k f i {.{.{.{.{.{.{.{.{.{.{.{.",
"{.{.{.{.{.{.{.{.{.{.{.{.$ 5 ` 3.7.2.' 1 & {.{.{.{.{.{.n a {.",
"{.{.{.{.{.{.{.{.{.{.h J s.Q.[.].[.V.f.F.0.> {.{.{.{.&.{.{.{.",
"{.{.{ b  .{.{.{.{.j ~ !.'.E.E.W.^.~.i._ G.n.; {.{.{.{.{.{.{.",
"{.{.{.{.{.{.{.{.#.D _.~.Y.).I.E.x.g.4.>.( [.p.t {.{.{.{.{.{.",
"{.{.{.{.{.{.{.{.* u.'.T.(.8.E 4 , X ,.b.F h.).2 {.{.{.{.{.{.",
"{.{.{.{.{.{.{.{.+ M.~.W.U.3 p.6.v.y.`.[.6 e.[.7 {.{.{.{.{.{.",
"{.{.{.{.{.{.{.{.% k./.T.`./ 8.[.~.).].a.o N.D.= {.{.$.n V | ",
"{.{.{.{.S ] {.{.o.:.[.Y.(.d.H P.E.^.A.- ;.[.5.d {.{.{.{.{.{.",
"{.{.z {.{.{.{.{.{.< m.(.T._.P r._.!.T I ].S.: {.{.{.{.{.{.{.",
"{.{.{.{.{.{.{.{.{.{.U L.~.].1.) [.e.O C.[.Q -.{.{.{.{.{.{.{.",
"{.{.{.{.{.{.{.{.{.{.{.W K.`.z.D !.w.L [.q.g {.%.{.{.{.{.{.{.",
"{.{.{.{.{.{.{.{.{.{.{.{.! L.H.8 l.R.j.(.K {.X.{.{.{.{.{.{.{.",
"{.{.{.{.{.{.{.{.{.{.{.{.=.;.[.T y._._.B.w {.{.{.{.{.{.{.{.{.",
"{.{.{.{.{.{.{.{.{.{.{.{.{.q ).^ y.).^.l.# {.{.{.{.{.{.{.{.{.",
"{.{.{.{.{.{.{.{.{.{.{.{.{.G [.<.c.~.~.].T {.{.{.{.{.{.{.{.{.",
"{.{.{.{.{.{.{.{.{.{.{.{.{.r t.J.`.).Z.9.9 {.{.{.{.{.{.{.{.{.",
"{.{.{.{.{.{.{.{.{.{.{.{.{.{.M 0 R Y e N {.{.{.{.{.{.{.{.{.{.",
"{.{.{.{.{.{.{.{.{.{.{.{.{.{.@.{.{.{.{.} p {.{.{.{.{.{.{.{.{.",
"{.{.{.{.{.{.{.{.{.{.{.{.{.{.{.m u y s C [ {.{.{.{.{.{.{.{.{.",
"{.{.{.{.{.{.{.{.{.{.{.{.{.{.{.B v x l l A {.{.{.{.{.{.{.{.{.",
"{.{.{.{.{.{.{.{.{.{.{.{.{.{.{.Z n c x v {.{.{.{.{.{.{.{.{.{.",
"{.{.{.{.{.{.{.{.{.{.{.{.{.{.{.Z   .   @ {.{.{.{.{.{.{.{.{.{."
};
