/* XPM */
static char *up[] = {
/* columns rows colors chars-per-pixel */
"30 30 237 2 ",
"   c black",
".  c #010000",
"X  c #000102",
"o  c gray1",
"O  c #050101",
"+  c #040404",
"@  c gray2",
"#  c #040606",
"$  c #060A0A",
"%  c #070D0D",
"&  c gray4",
"*  c #090B0C",
"=  c #0A0C0D",
"-  c #080E0E",
";  c #0A0E0E",
":  c gray5",
">  c #0E0E0E",
",  c #140000",
"<  c #170203",
"1  c #1A0000",
"2  c #1B0000",
"3  c #1E0000",
"4  c #190505",
"5  c #1A0C08",
"6  c #19100B",
"7  c #101010",
"8  c gray7",
"9  c #131313",
"0  c gray8",
"q  c #161616",
"w  c gray9",
"e  c #1F1610",
"r  c #171819",
"t  c #181818",
"y  c #191919",
"u  c gray10",
"i  c #1A1C1C",
"p  c gray11",
"a  c #1E1E1E",
"s  c gray12",
"d  c #2D0707",
"f  c #2E0808",
"g  c #300606",
"h  c #370404",
"j  c #3A0606",
"k  c #340807",
"l  c #211212",
"z  c #371D1D",
"x  c #361F1F",
"c  c #381D1D",
"v  c #391D1D",
"b  c #3A1C1C",
"n  c #3B1C1C",
"m  c #33241C",
"M  c #1A2020",
"N  c #1B2121",
"B  c #1E2325",
"V  c #1F2525",
"C  c #1E2626",
"Z  c #1F2626",
"A  c #1E2727",
"S  c gray13",
"D  c #222222",
"F  c #232323",
"G  c #202426",
"H  c #202626",
"J  c #212626",
"K  c #212727",
"L  c #222626",
"P  c #232626",
"I  c gray14",
"U  c #252525",
"Y  c #242626",
"T  c #252626",
"R  c gray15",
"E  c #272727",
"W  c #2F2323",
"Q  c #282424",
"!  c #24292B",
"~  c #282828",
"^  c gray16",
"/  c #2A2A2A",
"(  c gray17",
")  c #2C2C2C",
"_  c #2D2D2D",
"`  c gray18",
"'  c #2F2F2F",
"]  c #302121",
"[  c #3B2F2F",
"{  c gray19",
"}  c #313131",
"|  c #323232",
" . c gray20",
".. c #323636",
"X. c #343434",
"o. c gray21",
"O. c #373737",
"+. c gray22",
"@. c #393939",
"#. c #3A3A3A",
"$. c gray23",
"%. c #3C3C3C",
"&. c gray24",
"*. c #3E3E3E",
"=. c #3F3F3F",
"-. c #4D0506",
";. c #400808",
":. c #400909",
">. c #440808",
",. c #450808",
"<. c #4B0909",
"1. c #520808",
"2. c #520909",
"3. c #530A0A",
"4. c #550A0A",
"5. c #570C0C",
"6. c #411414",
"7. c #4A1717",
"8. c #451818",
"9. c #461919",
"0. c #441B1B",
"q. c #451C1C",
"w. c #531616",
"e. c #5E1414",
"r. c #620C0C",
"t. c #620D0D",
"y. c #690F0F",
"u. c #720E0E",
"i. c #730E0E",
"p. c #761010",
"a. c #761111",
"s. c #7A1111",
"d. c #7B1111",
"f. c #7F1111",
"g. c #7B1414",
"h. c #46291E",
"j. c #4B2525",
"k. c #462B20",
"l. c #4F2929",
"z. c #522C2C",
"x. c #532D2D",
"c. c #562F2F",
"v. c #4F3124",
"b. c #473128",
"n. c #593B2C",
"m. c #5B3C2D",
"M. c #423935",
"N. c #593232",
"B. c #5E3434",
"V. c #6C3A2C",
"C. c #613535",
"Z. c gray25",
"A. c #414141",
"S. c gray26",
"D. c #434343",
"F. c #414747",
"G. c #464646",
"H. c gray28",
"J. c #424848",
"K. c #434848",
"L. c #444A4A",
"P. c #484848",
"I. c #494949",
"U. c gray29",
"Y. c #515757",
"T. c gray34",
"R. c gray35",
"E. c gray37",
"W. c #6B4343",
"Q. c gray38",
"!. c #676D6D",
"~. c DimGray",
"^. c #6A6A6A",
"/. c #686C6C",
"(. c gray43",
"). c #727171",
"_. c gray45",
"`. c #797775",
"'. c #797979",
"]. c #850D0D",
"[. c #850F0F",
"{. c #8D0F0F",
"}. c #801111",
"|. c #821010",
" X c #831111",
".X c #871313",
"XX c #911010",
"oX c #921010",
"OX c #921111",
"+X c #931212",
"@X c #941313",
"#X c #971314",
"$X c #971414",
"%X c #981010",
"&X c #9F1313",
"*X c #981414",
"=X c #9A1414",
"-X c #9F1716",
";X c #A01313",
":X c #A01515",
">X c #AC1515",
",X c #AE1415",
"<X c #B11515",
"1X c #B61515",
"2X c #B71515",
"3X c #C01616",
"4X c #C11616",
"5X c #C11717",
"6X c #C21717",
"7X c #C31717",
"8X c #C41717",
"9X c #C51717",
"0X c #C61616",
"qX c #C61717",
"wX c #C71717",
"eX c #C81717",
"rX c #C91717",
"tX c #CA1717",
"yX c #CB1717",
"uX c #CC1717",
"iX c #CE1717",
"pX c #C81818",
"aX c #CD1818",
"sX c #CE1818",
"dX c #D61818",
"fX c #DA1919",
"gX c #DC1A1A",
"hX c #844C39",
"jX c #CC7558",
"kX c #D58A67",
"lX c #DD8966",
"zX c #EA916D",
"xX c #EB9771",
"cX c #FFA379",
"vX c gray56",
"bX c #FFB385",
"nX c None",
/* pixels */
"nXnXnXnXnXnXnXnXnXnXnXnXnXF D a #.nXnXnXnXnXnXnXnXnXnXnXnXnX",
"nXnXnXnXnXnXnXnXnXnXS D D ^ _ ( | ^ I q R.nXnXnXnXnXnXnXnXnX",
"nXnXnXnXnXnXnXnX#.o. .X.X.| { } { |  .| =.$.nXnXnXnXnXnXnXnX",
"nXnXnXnXnXnX' ' '  .O.O.O.| { { } O.O.+. .` @.o.nXnXnXnXnXnX",
"nXnXnXnX~.Q.E ) $.o.' ' ' { { { { ' ' '  .$.{ I Z.U.nXnXnXnX",
"nXnXvX'.' I } { ' { { { { { { { { { { { { ' { } ( / E.^.nXnX",
"nXnXS.w $.%.{ { { { { { { { { { { { { { { { { ' @.=.~ s nXnX",
"nXnXA.S #.#.{ { { { { { { { { { { { { { { { { ' O.&.( S nXnX",
"T.) { ` } } { { { { { { { { { { { { { { { { { { } } ' _ *.D.",
"nXnXH.a ` ' ' { { { { { { { { { { { { { { { { ' ' ' E D nXnX",
"nXnX*.0 R E R / } { { { { { { { { { { { { } _ R E E S s nXnX",
"nXnXnX_.^ u R E ^ ^ ~ _ } { { { { { ' ^ ^ ^ E U S U Z.nXnXnX",
"nXnXnXnXnX(.U D R R U E ^ ^ ^ ^ ^ ^ ~ R R R D D +.nXnXnXnXnX",
"nXnXnXnXnXnX!.Y.M L R R U R R R R R R R Y N K./.nXnXnXnXnXnX",
"nXnXnXnXnXnXnXnX8.x A P R R R R R R T C W 7.W.nXnXnXnXnXnXnX",
"nXnXnXnXnXnXnXnXu.e.0.] Z J J J J Z Q q.6.h C.nXnXnXnXnXnXnX",
"nXnXnXnXnXnXnX,.$X Xi.w.c n n n n v 9.p.r.>.b nXnXnXnXnXnXnX",
"nXnXnXnXnX).4 1.fX>Xs.}.|.|.|.|.|.|.}.a.$XgX].3 [ nXnXnXnXnX",
"nXnXnXnX- 1 8X8X5X7XqX9X9X9X9X9X9XeX1Xp.+XyXwXiX4.$ nXnXnXnX",
"nXnXnXnX- 2 0X,Xd.=X7X8XwXwXwXwXwXsX;X. ;.pX3X0X-.X nXnXnXnX",
"nXnXnXnX; , -Xy.O :.*X<XrXqXqXqXqXaX&X. g #X.Xg.k # nXnXnXnX",
"nXnXnXnX* 5 jXhX  <.qX6XwXqXqXqXqXrX2Xf.5.< V.zXlXkXb.7 nXnX",
"nXnXnXnXnX`.m e   2.dXyXtXtXtXtXtXuX4X:Xt.  n.xXcXbXh.  nXnX",
"nXnXnXnXnXnXnX=   j %XXXXXXXOX@X@XoX{.[.3.  6 k.v.m.M.nXnXnX",
"nXnXnXnXnXnXnXnX  l c.x.x.l.j.f d z.N.B.z   r G B ! nXnXnXnX",
"nXnXnXnXnXnXnXnX  i L.F.J.J N V % J H K ..9 nXnXnXnXnXnXnXnX",
"nXnXnXnXnXnXnXnX  p I.G.P.> + nXnX8     D.nXnXnXnXnXnXnXnXnX",
"nXnXnXnXnXnXnXnX  t =.%.*.& o nXnXnXnXnXnXnXnXnXnXnXnXnXnXnX",
"nXnXnXnXnXnXnXnX  @ 0 9 q w : nXnXnXnXnXnXnXnXnXnXnXnXnXnXnX",
"nXnXnXnXnXnXnXnXnXnXw t y nXnXnXnXnXnXnXnXnXnXnXnXnXnXnXnXnX"
};
