/* XPM */
static char *down[] = {
/* columns rows colors chars-per-pixel */
"30 30 116 2 ",
"   c #020202",
".  c #0A0000",
"X  c #050B0B",
"o  c #0D0C0C",
"O  c #110101",
"+  c #1C0506",
"@  c #1F0808",
"#  c #1A110C",
"$  c #0D1619",
"%  c #151515",
"&  c #171A1C",
"*  c #1D1E1E",
"=  c #230101",
"-  c #2B0000",
";  c #350202",
":  c #390000",
">  c #241711",
",  c #2E1C15",
"<  c #321E16",
"1  c #052110",
"2  c #082310",
"3  c #32251A",
"4  c #3F2218",
"5  c #1B1F20",
"6  c #1E2122",
"7  c #222223",
"8  c #2A2626",
"9  c #202729",
"0  c #262A2A",
"q  c #2C2C2C",
"w  c #302F30",
"e  c #323232",
"r  c #373A3A",
"t  c #393939",
"y  c #530303",
"u  c #5B0000",
"i  c #5B140F",
"p  c #640102",
"a  c #6B0202",
"s  c #670808",
"d  c #730404",
"f  c #7B0505",
"g  c #7B0808",
"h  c #442A1F",
"j  c #412627",
"k  c #4C2F22",
"l  c #492F2F",
"z  c #4E3023",
"x  c #43332F",
"c  c #563427",
"v  c #55362B",
"b  c #4B3232",
"n  c #3C4242",
"m  c #3D7B41",
"M  c #434343",
"N  c #434848",
"B  c #7D5342",
"V  c #417C43",
"C  c #810707",
"Z  c #860808",
"A  c #8E0808",
"S  c #900707",
"D  c #960708",
"F  c #940808",
"G  c #9D0909",
"H  c #A30A0A",
"J  c #AC0A0A",
"K  c #B5090A",
"L  c #BE0C0C",
"P  c #822A1F",
"I  c #C20C0C",
"U  c #CA0D0D",
"Y  c #E10D0D",
"T  c #F61111",
"R  c #F91212",
"E  c #934635",
"W  c #A34633",
"Q  c #814E41",
"!  c #895243",
"~  c #8B5E44",
"^  c #9C5E48",
"/  c #9B654A",
"(  c #9D6B52",
")  c #A46149",
"_  c #AB6D4F",
"`  c #B16045",
"'  c #B36348",
"]  c #BE684D",
"[  c #A36D52",
"{  c #AC6851",
"}  c #AD7B58",
"|  c #BA7455",
" . c #B07D5A",
".. c #CC7957",
"X. c #C3725A",
"o. c #CC7A58",
"O. c #BF9767",
"+. c #C49668",
"@. c #DE9A70",
"#. c #E48B69",
"$. c #F58969",
"%. c #E1976E",
"&. c #EA936E",
"*. c #EF986F",
"=. c #F2936F",
"-. c #E09A71",
";. c #EF9C71",
":. c #FB9470",
">. c #F39B72",
",. c #FE9F75",
"<. c #F3A376",
"1. c #FDA277",
"2. c #FFA479",
"3. c #FFAA7D",
"4. c #FFAE81",
"5. c None",
/* pixels */
"5.5.5.5.5.5.5.5.5.5.5.5.* * > 6 * * * 5.5.5.5.5.5.5.5.5.5.5.",
"5.5.5.5.5.5.5.5.5.5 * * e q 0 q 8 q e * * * 5.5.5.5.5.5.5.5.",
"5.5.5.5.5.5.5.5.7 0 q q w w q q q q w q q q 7 5.5.5.5.5.5.5.",
"5.5.5.5.5.5.5.7 q e w w e q q q q q e w w w q 7 5.5.5.5.5.5.",
"5.5.5.5.5.5.5.0 q q q q e e w q q e t q q q q 9 5.5.5.5.5.5.",
"5.5.5.5.5.5.5.> 8 q q q w r e q e e w q q e 0 > 5.5.5.5.5.5.",
"5.5.5.5.5.5.* w e q q w r e q q q w r w q q t w * 5.5.5.5.5.",
"5.5.5.5.5.* 0 w q q q t w q 0 q q q w t q q q w q * 5.5.5.5.",
"5.5.5.5.5.> 0 q q q q w q q 6 & 6 q q q q q q w 0 * 5.5.5.5.",
"5.5.5.5.5.5.7 8 e 0 * w * $ Q | E $ 5 q 6 9 w 0 > 5.5.5.5.5.",
"5.5.5.5.5.5.* 0 9 x ! 7 ( [ #.2.#.[ [ 8 B x 9 0 6 5.5.5.5.5.",
"5.5.5.5.5.5.5.7 x { =.B ^ >.4.2.3.>.) B &.[ x 9 5.5.5.5.5.5.",
"5.5.5.5.5.5.5.5.v o.3.<.$ O.<.,.3.} 2 ;.4.o.v 5.5.5.5.5.5.5.",
"5.5.5.5.5.5.5.5.5.k 4.<.m +.2.,.1.+.m <.4.z 5.5.5.5.5.5.5.5.",
"5.5.5.5.5.5.5.5.5.j @.%.1.2.1.,.1.1.1.%.@.j 5.5.5.5.5.5.5.5.",
"5.5.5.5.5.5.5.5.5.5.> , &.3.:.$.:.3.*.3 > 5.5.5.5.5.5.5.5.5.",
"5.5.5.5.5.5.5.5.5.5.  y h 3 | 3.| 3 4 y . 5.5.5.5.5.5.5.5.5.",
"5.5.5.5.5.5.5.5.5.= Z H : = ' 3.` = ; G Z + 5.5.5.5.5.5.5.5.",
"5.5.5.5.5.5.5.5.5.; U I D p P W P p D L U ; 5.5.5.5.5.5.5.5.",
"5.5.5.5.5.5.5.5.. y K C I H a u p A K f J y . 5.5.5.5.5.5.5.",
"5.5.5.5.5.5.5.  - H G O U R H d F I G . F H -   5.5.5.5.5.5.",
"5.5.5.5.5.5.5.% i K G = U R H d F L H = F K i # 5.5.5.5.5.5.",
"5.5.5.5.5.5.  ~ ] f J g J Y H d A K H f H f X./   5.5.5.5.5.",
"5.5.5.5.5.5.  / 2.E + j s d s u p a s j = E ,._   5.5.5.5.5.",
"5.5.5.5.5.5.5., c , X r b l b b b l b r X < c < 5.5.5.5.5.5.",
"5.5.5.5.5.5.5.5.5.  o t N n 0 6 0 n M M o   5.5.5.5.5.5.5.5.",
"5.5.5.5.5.5.5.5.5.5.o M N 0       8 M M o 5.5.5.5.5.5.5.5.5.",
"5.5.5.5.5.5.5.5.5.5.o r x o 5.5.5.o t r o 5.5.5.5.5.5.5.5.5.",
"5.5.5.5.5.5.5.5.5.5.  % % X 5.5.5.X % %   5.5.5.5.5.5.5.5.5.",
"5.5.5.5.5.5.5.5.5.5.5.    5.5.5.5.5.    5.5.5.5.5.5.5.5.5.5."
};
