/* XPM */
static char *left[] = {
/* columns rows colors chars-per-pixel */
"30 30 128 2 ",
"   c #010000",
".  c #0E0202",
"X  c #000B02",
"o  c #090909",
"O  c #160303",
"+  c #1D0404",
"@  c #151515",
"#  c #161B1B",
"$  c #1B1B1B",
"%  c #230404",
"&  c #2A0606",
"*  c #310505",
"=  c #3D0606",
"-  c #201212",
";  c #371D1D",
":  c #3C1D1D",
">  c #161E22",
",  c #181E21",
"<  c #1E2223",
"1  c #232424",
"2  c #292426",
"3  c #282827",
"4  c #2C2728",
"5  c #26292A",
"6  c #2D2D2D",
"7  c #372020",
"8  c #3C312D",
"9  c #2F2F30",
"0  c #2D3132",
"q  c #313131",
"w  c #383331",
"e  c #3B3B3B",
"r  c #410204",
"t  c #540708",
"y  c #530A0A",
"u  c #580F0E",
"i  c #640B0B",
"p  c #6C0C0D",
"a  c #730C0C",
"s  c #780E0F",
"d  c #741212",
"f  c #7D1312",
"g  c #47241A",
"h  c #67201B",
"j  c #432D20",
"k  c #4F2828",
"l  c #552B2B",
"z  c #43342E",
"x  c #483E3A",
"c  c #603838",
"v  c #246E3A",
"b  c #594136",
"n  c #564239",
"m  c #65473D",
"M  c #64493D",
"N  c #424343",
"B  c #4C4C4C",
"V  c #565757",
"C  c gray35",
"Z  c #626262",
"A  c #6C6D6D",
"S  c #7E6C63",
"D  c gray50",
"F  c #820C0E",
"G  c #8B0C0E",
"H  c #8B0F10",
"J  c #8D1111",
"K  c #941313",
"L  c #981212",
"P  c #A30D0F",
"I  c #A71414",
"U  c #AA1515",
"Y  c #A21A18",
"T  c #B71515",
"R  c #8F2D25",
"E  c #893027",
"W  c #88352A",
"Q  c #8F3A2E",
"!  c #8F3F31",
"~  c #923F32",
"^  c #9A3F31",
"/  c #C41617",
"(  c #CA1818",
")  c #D11818",
"_  c #D91919",
"`  c #9A4032",
"'  c #9E4C3B",
"]  c #815547",
"[  c #8C5B47",
"{  c #87584A",
"}  c #8B5E4A",
"|  c #8F624A",
" . c #94654D",
".. c #9D6D55",
"X. c #A76C53",
"o. c #AA6E54",
"O. c #B16F59",
"+. c #B27154",
"@. c #BD7154",
"#. c #B57458",
"$. c #C47356",
"%. c #CB795C",
"&. c #A78E60",
"*. c #AE8F62",
"=. c #D48665",
"-. c #D78B68",
";. c #DE8C6C",
":. c #DD906C",
">. c #E38C6D",
",. c #E2926D",
"<. c #EB936E",
"1. c #EA9F7C",
"2. c #F39470",
"3. c #F69A73",
"4. c #FA9D76",
"5. c #F89D78",
"6. c #FEA177",
"7. c #FFA279",
"8. c #FFA97E",
"9. c #838383",
"0. c #FFAE82",
"q. c #FDAC89",
"w. c #F8B89A",
"e. c #FFC5A8",
"r. c #FFCEB3",
"t. c #FFDDCD",
"y. c #FFE0D1",
"u. c none",
/* pixels */
"u.u.u.u.u.u.u.u.u.u.u.u.u.u.u.u.u.u.u.u.u.u.u.u.u.u.u.u.u.u.",
"u.u.u.u.u.u.u.u.u.u.u.u.u.u.u.u.u.e 9 6 B u.u.u.u.u.u.u.u.u.",
"u.u.u.u.u.u.u.u.u.u.e N e e e e e 6 6 3 q e u.u.u.u.u.u.u.u.",
"u.u.u.u.u.u.C B e q 1 3 3 3 1 6 9 0 q w q 3 e N u.u.u.u.u.u.",
"u.u.u.u.D A 1 1 1 5 e q q q q e e q q 6 q w 3 1 B Z u.u.u.u.",
"u.u.u.9.q 1 q q q e e w 9 q q 6 6 q q q 0 q q q 6 6 V u.u.u.",
"u.u.e $ e e 6 q e e q q 9 9 9 q q 6 q q 9 q 6 q e e 3 1 u.u.",
"B $ e e q q q 9 0 q e w 9 q q 6 q q 6 q 6 q q q q q q q q 6 ",
"u.u.B < 9 9 9 q q q 0 e e e 9 9 9 q 9 q 6 q 6 q 9 q 0 e 1 $ ",
"u.u.N $ 9 9 < 1 q q q w w q 0 9 0 9 q 9 9 q q q 9 0 q q 3 1 ",
"u.u.N @ 6 x #.{ # , , 5 q 1 < e e 0 6 q q q q q 9 9 q q 1 1 ",
"u.u.C N 5 z 4.:.|  ...n > m ] 9 5 w e q q 6 q 6 9 9 0 e - $ ",
"u.u.u.u.A S 7.7.8.,.+.[ M =.5.} M q 9 q q q 9 q 9 0 6 3 V Z ",
"u.u.u.u.u.u.6.6.8. .X | q.7.7.8.4.b 8 9 9 9 q 9 w w 1 $ u.u.",
"u.u.u.u.u.t.7.6.7.*.v &.7.7.7.7.6.=.X.1 1 q q 9 q e e N u.u.",
"u.u.u.u.u.t.6.7.7.6.5.7.7.6.7.7.6.=.o.3 3 q q q 9 q u.u.u.u.",
"u.u.u.u.u.y.8.5.>.>.>.3.7.6.7.7.7.4.<.#.} 1 2 6 Z u.u.u.u.u.",
"u.u.u.u.u.u.u.q.2.5.4.6.7.7.8.,.-.:.%.R h X q u.u.u.u.u.u.u.",
"u.u.u.u.u.u.u.u.r.e.w.1.,.,.,.' W Q E s t   1 u.u.u.u.u.u.u.",
"u.u.u.u.u.u.u.u.u.u.u.^ ` ~ ` L P F p & ; u.u.u.u.u.u.u.u.u.",
"u.u.u.u.u.u.u.u.u.u.u.r r a G G J I J & 7 u.u.u.u.u.u.u.u.u.",
"u.u.u.u.u.u.u.u.u.u.u.- % L ( +   T / U s   5 u.u.u.u.u.u.u.",
"u.u.u.u.u.u.u.u.u.o o d ) K f % O U / ( J   6 u.u.u.u.u.u.u.",
"u.u.u.u.u.u.u.u.u.u.  a _ =   u d d f L p   6 u.u.u.u.u.u.u.",
"u.u.u.u.u.u.u.u.u.u.  a _ &   $.2.2.$.O .   6 u.u.u.u.u.u.u.",
"u.u.u.u.u.u.u.u.u.    y K i t g j j g y =   6 u.u.u.u.u.u.u.",
"u.u.u.u.u.u.u.u.u.u.u.O & k c 4 < < 1 l :   6 u.u.u.u.u.u.u.",
"u.u.u.u.u.u.u.u.u.u.u.    # 5 N B B N $ < o u.u.u.u.u.u.u.u.",
"u.u.u.u.u.u.u.u.u.u.u.u.q     5 e e 6   $ u.u.u.u.u.u.u.u.u.",
"u.u.u.u.u.u.u.u.u.u.u.u.u.e w @ @ @ $ 0 B u.u.u.u.u.u.u.u.u."
};
