/* XPM */
static char *wall[] = {
/* columns rows colors chars-per-pixel */
"30 30 84 1 ",
"  c #393636",
". c #393737",
"X c #3A3838",
"o c #3B3939",
"O c #3C3939",
"+ c #3C3A3A",
"@ c #3D3B3B",
"# c #3E3C3C",
"$ c #3F3D3D",
"% c #3F3E3E",
"& c #403E3E",
"* c #413F3F",
"= c #424040",
"- c #434141",
"; c #434242",
": c #444242",
"> c #454343",
", c #464444",
"< c #464545",
"1 c #494848",
"2 c #4A4848",
"3 c #4A4949",
"4 c #4B4949",
"5 c #4B4A4A",
"6 c #4C4B4B",
"7 c #4D4B4B",
"8 c #4D4C4C",
"9 c #4E4C4C",
"0 c #4E4D4D",
"q c #4F4D4D",
"w c #4F4E4E",
"e c #504F4F",
"r c #515050",
"t c #525151",
"y c gray32",
"u c #535252",
"i c #545353",
"p c gray33",
"a c #555454",
"s c #585858",
"d c #5A5A5A",
"f c #5B5B5B",
"g c #5C5A5A",
"h c gray36",
"j c #5D5D5D",
"k c #5E5C5C",
"l c #5E5D5D",
"z c gray37",
"x c #5F5E5E",
"c c #5F5F5F",
"v c #606060",
"b c #616060",
"n c gray38",
"m c #626262",
"M c gray39",
"N c #656464",
"B c #666565",
"V c #676666",
"C c #686767",
"Z c #696868",
"A c #6B6969",
"S c #6D6C6C",
"D c #717171",
"F c #737272",
"G c #757474",
"H c gray46",
"J c #777777",
"K c #777878",
"L c #787979",
"P c #797979",
"I c gray48",
"U c #7B7B7B",
"Y c #838383",
"T c #898989",
"R c #8B8A8A",
"E c #8C8B8B",
"W c gray55",
"Q c #8D8D8D",
"! c #8E8E8E",
"~ c gray56",
"^ c #909090",
"/ c gray57",
"( c #929292",
") c gray58",
/* pixels */
". o#..............@+ .........",
"BZa*NVBBBBBBBBBBBC<9ZBBBBBBBBB",
"~)S-Q^~~~~~~~~~~~(0k)~~~~~~~~~",
"nMu&vnnnnnnnnnnnnm,5Mnnnnnnnnn",
"jcr&hjjjjjjjjjjjjz>3cjjjjjjjjj",
"zvr&jzzzzzzzzzzzzc>3vzzzzzzzzz",
"vmt&cvvvvvvvvvvvvn>5mvvvvvvvvv",
"80<#68888680688888&-0888780868",
"**=;*****=#@=*****--******+$=*",
"RRRRRRRRR~g8QRRRRRRRRRRRET-A~R",
"JJJJJJJJJUi2PJJJJJJJJJJJKH=xUJ",
"fffffffffj1:hffffffffffffd&wjf",
"zzzzzzzzzv3>czzzzzzzzzzzzj&rvz",
"cccccccccn3>vccccccccccccz&rnc",
"hhhhhhhhhl1>jhhhhhhhhhhhhf&elh",
"ooooo%#oooX.oooooo$#oooooo.Xoo",
"BBBBV:qCBBBBBBBBBV,7CBBBBBBBBB",
"~~~~/4b)~~~~~~~~~(0k)~~~~~~~~~",
"nnnnm:8Mnnnnnnnnnm,5Mnnnnnnnnn",
"jjjjz;6cjjjjjjjjjz>3cjjjjjjjjj",
"zzzzc;6vzzzzzzzzzc>3vzzzzzzzzz",
"vvvvn;8mvvvvvvvvvn>5mvvvvvvvvv",
"88888%:08868087888&-0888888680",
"*****--***=&+*=***--*******=&O",
"RRRRRRRRRR!G$YWRRRRRRRRRRRR!FX",
"JJJJJJJJJJIV$DLJJJJJJJJJJJJIBo",
"ffffffffffju#shffffffffffffjy+",
"zzzzzzzzzzva#fczzzzzzzzzzzzvp+",
"zzzzzzzzzzva#fczzzzzzzzzzzzvp+",
"zzzzzzzzzzva#fczzzzzzzzzzzzvp+"
};
