/* XPM */
static char *right[] = {
/* columns rows colors chars-per-pixel */
"30 30 160 2 ",
"   c #020101",
".  c #0C0B0B",
"X  c #160A0B",
"o  c #190F0F",
"O  c #190303",
"+  c #071215",
"@  c #0B1213",
"#  c #131313",
"$  c #1F1211",
"%  c #151B1D",
"&  c #1B1D1D",
"*  c #210202",
"=  c #220F0F",
"-  c #2A0505",
";  c #330707",
":  c #3B0000",
">  c #30130E",
",  c #281010",
"<  c #27191B",
"1  c #3A1010",
"2  c #391D1D",
"3  c #272C1C",
"4  c #171D21",
"5  c #1C2123",
"6  c #232323",
"7  c #242729",
"8  c #262B2C",
"9  c #2D2D2D",
"0  c #2A2222",
"q  c #332525",
"w  c #382222",
"e  c #322D2B",
"r  c #382F2D",
"t  c #3C312E",
"y  c #2C2F30",
"u  c #2E3131",
"i  c #313131",
"p  c #383532",
"a  c #3A3A3A",
"s  c #4A0C0C",
"d  c #5C0303",
"f  c #530909",
"g  c #5C0C0C",
"h  c #4D130E",
"j  c #57100E",
"k  c #411010",
"l  c #491919",
"z  c #461714",
"x  c #571A19",
"c  c #600707",
"v  c #620608",
"b  c #630B0C",
"n  c #7A0C0C",
"m  c #780404",
"M  c #7C1110",
"N  c #502A1E",
"B  c #542021",
"V  c #592425",
"C  c #42352F",
"Z  c #433C3A",
"A  c #4B3933",
"S  c #632425",
"D  c #603426",
"F  c #55433B",
"G  c #6B4834",
"H  c #68473D",
"J  c #694D3F",
"K  c #704C37",
"L  c #704F39",
"P  c #775A3F",
"I  c #3F3F40",
"U  c #3F4141",
"Y  c #3E4F4F",
"T  c #434343",
"R  c #4B4B4B",
"E  c #414D4D",
"W  c #5E534D",
"Q  c #494E50",
"!  c #445353",
"~  c #555555",
"^  c gray36",
"/  c #7F5643",
"(  c #7E5846",
")  c #76595A",
"_  c #537846",
"`  c #636464",
"'  c gray47",
"]  c #820408",
"[  c #89090A",
"{  c #970C0E",
"}  c #980808",
"|  c #841111",
" . c #8B1011",
".. c #971011",
"X. c #9C1213",
"o. c #A50A0A",
"O. c #A11211",
"+. c #B91616",
"@. c #B11414",
"#. c #9C2A23",
"$. c #8D3028",
"%. c #8D3A2F",
"&. c #8E3E31",
"*. c #D61818",
"=. c #D91818",
"-. c #D11616",
";. c #9B4131",
":. c #9C4833",
">. c #A54737",
",. c #815C44",
"<. c #875A4B",
"1. c #885D4A",
"2. c #97634D",
"3. c #9B664F",
"4. c #8E6953",
"5. c #9F7057",
"6. c #AF654C",
"7. c #B4644C",
"8. c #A96151",
"9. c #AE7054",
"0. c #AC7258",
"q. c #B7795F",
"w. c #BA775D",
"e. c #CF795A",
"r. c #8F8758",
"t. c #9C8B5B",
"y. c #C78465",
"u. c #DE8769",
"i. c #DB8B68",
"p. c #D7996F",
"a. c #D1916B",
"s. c #E48D6B",
"d. c #E2936D",
"f. c #E9956D",
"g. c #F4926B",
"h. c #EA9670",
"j. c #EF9971",
"k. c #EE9F79",
"l. c #F19673",
"z. c #F59F75",
"x. c #FD9D74",
"c. c #FC9E78",
"v. c #EFA076",
"b. c #F4A077",
"n. c #FBA077",
"m. c #F6A17E",
"M. c #FFA37A",
"N. c #FFAA7E",
"B. c #A0A5A6",
"V. c #CD9384",
"C. c #FFAE81",
"Z. c #FFB183",
"A. c #FFB797",
"S. c #FFB798",
"D. c #FDBA9A",
"F. c #F3B294",
"G. c #FCC4AA",
"H. c #FDCDB5",
"J. c #FFD4BD",
"K. c None",
/* pixels */
"K.K.K.K.K.K.K.K.K.a 9 6 < K.K.K.K.K.K.K.K.K.K.K.K.K.K.K.K.K.",
"K.K.K.K.K.K.K.R i 9 i i 8 6 6 6 6 # 6 R K.K.K.K.K.K.K.K.K.K.",
"K.K.K.K.K.K.a 6 9 i i i i i i 9 9 9 9 i 9 6 & ~ K.K.K.K.K.K.",
"K.K.K.K.~ I i 9 i i i 9 i a p i y i p i 9 7 9 i R K.K.K.K.K.",
"K.K.K.T 9 9 i i 9 i e i i u i u i i p a a p i 8 0 p ^ K.K.K.",
"K.R i u i p i 9 i u i i u i e u y y i i a a i p a 9 u R K.K.",
"i 9 9 e i u i i i i u e e u i u u i a a i u u e u p i i R ~ ",
"9 9 9 i i i i y i 9 u u i i e i p a a i 9 i u i i 6 u ^ K.K.",
"e 9 9 i i e i i i 9 u i i i i i i i i i i y 5 7 e 4 i ^ K.K.",
"y 9 9 i i i y u i i i 9 i a y 7 8 9 9 4 % e <.1.Z & 9 ` K.K.",
"9 9 9 9 i i i e e u i a 9 9 F H A p F 4.0.0.l.q.C y Q K.K.K.",
"R a y 9 9 i i 9 i i u 8 p W w.i.q.1./ 9.p.N.Z.y.W K.K.K.K.K.",
"K.K.p 9 9 i i i u u u q ,.h.M.Z.Z.a.( 3 ,.N.N.D.K.K.K.K.K.K.",
"K.K.i y i a p y 9 4 C 2.s.x.M.M.M.p.r._ t.M.n.S.K.K.K.K.K.K.",
"K.K.K.K.9 7 9 p e 6 C 3.d.x.M.M.M.n.b.j.b.n.x.S.K.K.K.K.K.K.",
"K.K.K.K.K.R 8 & e ( y.h.M.M.M.M.M.n.l.s.s.s.g.S.K.K.K.K.K.K.",
"K.K.K.K.K.K.B.R $ h >.e.d.d.j.c.M.M.x.g.g.m.G.K.K.K.K.K.K.K.",
"K.K.K.K.K.K.K.T X : M $.%.;.7.i.f.k.F.H.J.K.K.K.K.K.K.K.K.K.",
"K.K.K.K.K.K.K.K.Z 2 s b m ..#.;.:.8.V.K.K.K.K.K.K.K.K.K.K.K.",
"K.K.K.K.K.K.K.K.K.$ h | X.X...m d S ) K.K.K.K.K.K.K.K.K.K.K.",
"K.K.K.K.K.K.K.U = d @.*.| O g  .n l T K.K.K.K.K.K.K.K.K.K.K.",
"K.K.K.K.K.K.K.U , n -.=.| * ; M +.o.b 9 ! K.K.K.K.K.K.K.K.K.",
"K.K.K.K.K.K.K.U = d X. .n b - ; n } n q Y K.K.K.K.K.K.K.K.K.",
"K.K.K.K.K.K.K.I .   z 6.x.g.L > v ] M q Y K.K.K.K.K.K.K.K.K.",
"K.K.K.K.K.K.K.I X O s D L G B j n m f 3 E K.K.K.K.K.K.K.K.K.",
"K.K.K.K.K.K.K.I $ 1 B < + @ q V x k 2 R K.K.K.K.K.K.K.K.K.K.",
"K.K.K.K.K.K.K.K.7 & y I R R T 8 . & ` K.K.K.K.K.K.K.K.K.K.K.",
"K.K.K.K.K.K.K.K.K.6 # 9 U T 6     8 ' K.K.K.K.K.K.K.K.K.K.K.",
"K.K.K.K.K.K.K.K.K.7 . % 3 4 X     K.K.K.K.K.K.K.K.K.K.K.K.K.",
"K.K.K.K.K.K.K.K.K.K.K.p #     K.K.K.K.K.K.K.K.K.K.K.K.K.K.K."
};
