/* XPM */
static char *enem1[] = {
/* columns rows colors chars-per-pixel */
"30 30 126 2 ",
"   c #010000",
".  c #0B0302",
"X  c #0E0900",
"o  c #010B0B",
"O  c #0D0D0E",
"+  c #140505",
"@  c #1B0707",
"#  c #170F00",
"$  c #1E0A0A",
"%  c #1C1303",
"&  c #040F10",
"*  c #1C0F10",
"=  c #041213",
"-  c #0A1617",
";  c #0C1B1D",
":  c #131314",
">  c #11161F",
",  c #131B1C",
"<  c #181A1B",
"1  c #220505",
"2  c #250909",
"3  c #2C0B0B",
"4  c #330B0B",
"5  c #291A00",
"6  c #251C0B",
"7  c #311F00",
"8  c #371010",
"9  c #391010",
"0  c #151F20",
"q  c #1C1F21",
"w  c #181E28",
"e  c #152123",
"r  c #1A2628",
"t  c #222527",
"y  c #242728",
"u  c #242B2E",
"i  c #292B2D",
"p  c #232933",
"a  c #2A2E33",
"s  c #253235",
"d  c #2D3033",
"f  c #2E343A",
"g  c #2F3B3F",
"h  c #32373C",
"j  c #430E0E",
"k  c #4A0F0F",
"l  c #461313",
"z  c #4A1111",
"x  c #531515",
"c  c #5B1515",
"v  c #561817",
"b  c #551818",
"n  c #5C1919",
"m  c #661312",
"M  c #6D1716",
"N  c #651C1C",
"B  c #6C1A1A",
"V  c #771B1B",
"C  c #7A1A1A",
"Z  c #583B3E",
"A  c #742121",
"S  c #634201",
"D  c #333B47",
"F  c #393F47",
"G  c #354246",
"H  c #3E4349",
"J  c #3C494D",
"K  c #41474E",
"L  c #42494D",
"P  c #494F57",
"I  c #4D5257",
"U  c #4E555A",
"Y  c #51565C",
"T  c #54595E",
"R  c #5A5F64",
"E  c #5C6166",
"W  c #5E6469",
"Q  c #60666B",
"!  c #63696E",
"~  c #646970",
"^  c #821D1D",
"/  c #8C1F1F",
"(  c #991E1E",
")  c #842525",
"_  c #8C2525",
"`  c #922323",
"'  c #992222",
"]  c #972A2A",
"[  c #9C2C2B",
"{  c #A52424",
"}  c #A82525",
"|  c #A22E2E",
" . c #B32828",
".. c #BA2A2A",
"X. c #B63232",
"o. c #BC3535",
"O. c #C32B2B",
"+. c #CC2D2D",
"@. c #D42F2F",
"#. c #C73838",
"$. c #D63030",
"%. c #DB3131",
"&. c #D43C3C",
"*. c #DC3E3E",
"=. c #E33333",
"-. c #EB3434",
";. c #E03E3E",
":. c #EC3A3A",
">. c #F03636",
",. c #805601",
"<. c #835802",
"1. c #895B00",
"2. c #956301",
"3. c #9C6901",
"4. c #B77905",
"5. c #BB7C05",
"6. c #E34040",
"7. c #EC4242",
"8. c #F44545",
"9. c #FA4747",
"0. c #FF4949",
"q. c #E39709",
"w. c #EB9C09",
"e. c #F6A609",
"r. c #FFC40D",
"t. c None",
/* pixels */
"t.t.t.t.t.t.t.t.t.t.    t.t.t.t.t.t.t.t.t.t.t.t.t.t.t.t.t.t.",
"t.t.t.t.t.t.t.t.t.t.  c 2   t.t.t.t.t.t.t.t.t.t.t.t.t.t.t.t.",
"t.t.t.t.t.t.t.t.t.t.  V =./ 3   t.t.t.t.t.t.t.t.t.t.t.t.t.t.",
"t.t.t.t.t.t.t.t.t.t.t.3 %.=.@.^ +   t.t.t.t.t.t.t.t.t.t.t.t.",
"t.t.t.t.t.t.t.t.t.t.t.  ..%.%.=.O.l   t.t.t.t.t.t.t.t.t.t.t.",
"t.t.t.t.t.t.t.t.t.t.t.  ' =.$.@.%.:.A   t.t.t.t.t.t.t.t.t.t.",
"t.t.t.t.t.t.t.t.t.t.t.  ` =.@.$.$.%.0.A   t.t.t.t.t.t.t.t.t.",
"t.t.t.t.t.t.t.t.t.t.t.t.@.$.$.$.$.$.8.9.9   t.t.  t.t.t.t.t.",
"t.t.t.t.t.t.t.t.t.t.t.2 O.%.$.$.$.$.7.0.X.  t.t.    t.t.t.t.",
"t.t.t.t.t.t.t.t.t.t.t.+ O.%.$.@.$.$.8.8.9.4 t.t.8 |   t.t.t.",
"t.t.t.t.  t.t.t.t.t.  x =.@.$.$.$.%.8.8.0.] + + ) 0.b   t.t.",
"t.t.t.      t.t.t.t..  .-.=.%.=.=.:.0.9.8.9.6.6.9.0.o.  t.t.",
"t.t.t.  / z .   . 2 M ( m z k k x ^  .;.0.0.8.9.9.9.&.. t.t.",
"t.t.t.2 %.%.O.} M 4 * 0 s G J J G s , $ c o.0.9.8.9.&.. t.t.",
"t.t.  B =.=.O.j O h U W W W W E W W W U s O n 7.9.0.o.  t.t.",
"t.t.  } -...+ r U E E R R R R E R R R E W R e 4 6.0.A   t.t.",
"t.t.2 $.%.4 - r p W W R R R R R R R R W E f t = x 7.@ t.t.  ",
"t.  k -.{   a . 5 0 P Q Q R R R W W W P > 5 . h o _     @ 8 ",
"t.  B >.C o h + q.,.% w F Y R R I H w % <.w.# K = ] o._ 6.B ",
"t.  ^ -./ o H   4.r.e.3.7   i i   7 3.e.r.5.  Y o [ 0.0.0.l ",
"t.  V -.O.. g i % 1.2.S 6 y I I q 6 S 2.1.% f L   &.0.8.8.3 ",
"t.  x =.%.} Z U G p p D Y W E E W R D p p K W = n 0.8.9.&.. ",
"t.t.2 +.$.-.V - I E Q W W E E R R W Q Q ! Q 0 3 7.9.8.0.]   ",
"t.t.  C =.$.+.l O H T E Y T E E R Y R R T < 4 6.9.8.9.7.3 t.",
"t.t.t..  .=.@.:.j ; I R < d Q Q y : R ! u @ 8.9.8.9.9.B   t.",
"t.t.t.  @  .=.-.x , Y E : d ! ! y : Q ~ p 4 9.8.9.9.A   t.t.",
"t.t.t.t.t.+ _ -.c & D G o e J J > o J J ; 8 9.0.*.b   t.t.t.",
"t.t.t.t.t.t.  j ^ c N n v b b b x b b b N #.0.X.+   t.t.t.t.",
"t.t.t.t.t.t.t.t.  4 ) o.*.7.8.9.8.8.7.&.| b ) t.t.t.t.t.t.t.",
"t.t.t.t.t.t.t.t.t.t.t.    + 2 2 2 @ .     t.t.t.t.t.t.t.t.t."
};
