/* XPM */
static char *enem2[] = {
/* columns rows colors chars-per-pixel */
"30 30 180 2 ",
"   c #0E0404",
".  c #000001",
"X  c #170505",
"o  c #161304",
"O  c #101719",
"+  c #2D0B0B",
"@  c #240605",
"#  c #3E0E0D",
"$  c #350604",
"%  c #221B1C",
"&  c #3A1617",
"*  c #23220B",
"=  c #232B15",
"-  c #3C2910",
";  c #192A2D",
":  c #2F2224",
">  c #312526",
",  c #283236",
"<  c #363C3D",
"1  c #4C0600",
"2  c #440E0D",
"3  c #4D0906",
"4  c #5F0700",
"5  c #5C0A03",
"6  c #580B05",
"7  c #471204",
"8  c #4C1414",
"9  c #441616",
"0  c #5C121B",
"q  c #5A1918",
"w  c #630700",
"e  c #690700",
"r  c #650901",
"t  c #6D0901",
"y  c #730C00",
"u  c #780C05",
"i  c #6D1300",
"p  c #6C160C",
"a  c #63110C",
"s  c #7C1100",
"d  c #761C00",
"f  c #6B1B1C",
"g  c #64181D",
"h  c #751915",
"j  c #422C0A",
"k  c #4F2203",
"l  c #483A18",
"z  c #643E0A",
"x  c #6B201B",
"c  c #673D1F",
"v  c #4D2D2E",
"b  c #5E2E2C",
"n  c #6B2222",
"m  c #652825",
"M  c #792323",
"N  c #67302D",
"B  c #7E6C1F",
"V  c #73671D",
"C  c #7F6F22",
"Z  c #293D45",
"A  c #47454B",
"S  c #5A4A4D",
"D  c #4B4F54",
"F  c #584D50",
"G  c #425156",
"H  c #545C66",
"J  c #595D62",
"K  c #5A6167",
"L  c #5A646A",
"P  c #57656B",
"I  c #606A71",
"U  c #850E00",
"Y  c #900F00",
"T  c #841100",
"R  c #8A1400",
"E  c #861E00",
"W  c #931500",
"Q  c #9B1B00",
"!  c #881E1E",
"~  c #971A15",
"^  c #A51500",
"/  c #A41C00",
"(  c #B01B00",
")  c #892302",
"_  c #BC2200",
"`  c #BF2A00",
"'  c #AB3B00",
"]  c #842626",
"[  c #982222",
"{  c #A22B2D",
"}  c #AB2C2C",
"|  c #B82929",
" . c #C21F00",
".. c #C32300",
"X. c #CC2100",
"o. c #C32900",
"O. c #C82900",
"+. c #D22200",
"@. c #DA2600",
"#. c #D52B00",
"$. c #DD2E00",
"%. c #DE3200",
"&. c #DA3900",
"*. c #E02600",
"=. c #E12B00",
"-. c #C82929",
";. c #C83637",
":. c #D63030",
">. c #DC3232",
",. c #D53C3C",
"<. c #E33434",
"1. c #E73E3F",
"2. c #F03636",
"3. c #945802",
"4. c #827423",
"5. c #8A7522",
"6. c #DC4600",
"7. c #DB4B00",
"8. c #D54500",
"9. c #D35B00",
"0. c #DF5A00",
"q. c #DC5100",
"w. c #E24600",
"e. c #E05100",
"r. c #E45C00",
"t. c #CB6E04",
"y. c #DD6A00",
"u. c #CE7102",
"i. c #C67F00",
"p. c #D67500",
"a. c #DE7C00",
"s. c #DB7000",
"d. c #E46500",
"f. c #E37300",
"g. c #E17A00",
"h. c #ED4343",
"j. c #FF4A4A",
"k. c #F04443",
"l. c #FF5151",
"z. c #BD8812",
"x. c #B3992D",
"c. c #BDA32F",
"v. c #C78202",
"b. c #CB8B01",
"n. c #C88403",
"m. c #DE8100",
"M. c #D28D01",
"N. c #DA8900",
"B. c #CA920C",
"V. c #DD9400",
"C. c #CA9413",
"Z. c #CC9814",
"A. c #D09E17",
"S. c #D6951A",
"D. c #E48700",
"F. c #E18C00",
"G. c #E49600",
"H. c #E39C00",
"J. c #E08F13",
"K. c #E29213",
"L. c #D2A31C",
"P. c #E3A000",
"I. c #DAAD27",
"U. c #CEB637",
"Y. c #D6BB39",
"T. c #E4BD2E",
"R. c #E7BE31",
"E. c #E8BF31",
"W. c #DDC039",
"Q. c #ECC42E",
"!. c #EAC334",
"~. c #EECA3A",
"^. c #E7C332",
"/. c #F2CC34",
"(. c #F0C938",
"). c #F4D23B",
"_. c #FFDD43",
"`. c #FFE244",
"'. c #FFEB47",
"]. c None",
/* pixels */
"].].].].].].].].].].].].].].].].].].].].].].].].].].].].].].",
"].].].].].].].].].].].].].].].].].].].].t y ].].].].].].].].",
"].].].].].].].].].].].].].].].].].].].].t e e ].].].].].].].",
"].].].].].].].].].].].].].].].].].].].].e R s w ].].].].].].",
"].].].].].].].].].].].. @ ].].].].].].].w / #.y e ].].].].].",
"].].].].].].].].].].].].] [ X ].].].].].r O.=...r ].].t ].].",
"].].].].].].].].].].].].8 2.-.@ ].].].w T 6.8.=.W ].t e ].].",
"].].].].].].].].].].].].+ >.<.;.+ ].].r  .e.F.%...1 w y ].].",
"].].].].].].].].].].].].+ :.>.<.,.+ w Q @.d.H.0.+.6 6 t ].].",
"].].].].].].].].].].].].h <.:.>.1.u y @.&.N.H.g.@.4 t T w ].",
"].].].].].y y ].].].].].2 >.:.>.~ w  .$.p.L.M.D.#.r Q _ r ].",
"].].].].].t t r @ ].].].f <.>.-.4 / *.f.b.~.L.a.o.5 O.#.u e ",
"].].].].].e R T 1 ].].  | -.-.~ y @.y.G.C._.^.p.....f.w.W w ",
"].].].].].w / #.u 3 2 # 9 : : 6 ( w.G.i.!._.).t.7.g.P.r.^ w ",
"].].].].].r O.=.` y 9 # b P J p X.f.b.I._._.(.i.B.A.V.d.^ w ",
"].].].].w T w.7.@.W v h N P J p #.a.Z.`.`.'.!.z.!.E.M.d.W r ",
"].].].].r ..e.F.%...8 5 x L P b ( a.Q.'.c.V 5.Y.'.!.M.8.e ].",
"].].].w Q *.d.H.0.+.d i t F K A t 9./.4.q g 0 o Y.Q.s.W ].].",
"].].e s #.&.N.H.g.+.) ) U 2 , o 3.' S.= { l.] ].4.K.) ].].].",
"].e r ..$.p.L.M.F.#.r W _ r S < l - N j ;.j.f ].z 7 ].].].].",
"].w / $.f.b.~.L.m.` 4 O.=.u m I H H Z q h.j.9 ].].].].].].].",
"r u @.d.V.C.`.!.u.X...f.w.W a D L D & 1.j.,.  ].].].].].].].",
"w ( w.G.n.!.`.).t.q.a.H.r.^ a % K , } j.j.q ].].].].].].].].",
"t +.f.M.I.`._.(.i.B.A.G.d.^ 6 O G ; } j.M ].].].].].].].].].",
"r #.m.Z._.`.'.E.z.~.R.M.d.Y h x n M h.M ].].].].].].].].].].",
"$ ..p.T.`.x.V B Y.'.!.M.8.e { ;.{ g 8 ].].].].].].].].].].].",
"].y 9./.4.].].].].U.Q.y.R ].].].].].].].].].].].].].].].].].",
"].].d S.* ].].].].4.S.E ].].].].].].].].].].].].].].].].].].",
"].].].k j ].].].].z 7 ].].].].].].].].].].].].].].].].].].].",
"].].].].].].].].].].].].].].].].].].].].].].].].].].].].].]."
};
